<mxfile host="65bd71144e" scale="2" border="0">
    <diagram id="AaDb1mEusUxx8UnWyXaG" name="Page-1">
        <mxGraphModel dx="1068" dy="796" grid="1" gridSize="10" guides="1" tooltips="1" connect="1" arrows="1" fold="1" page="1" pageScale="1" pageWidth="1169" pageHeight="827" math="0" shadow="0">
            <root>
                <mxCell id="0"/>
                <mxCell id="1" parent="0"/>
                <mxCell id="2" value="game" style="shape=umlFrame;whiteSpace=wrap;html=1;" parent="1" vertex="1">
                    <mxGeometry x="180" y="400" width="860" height="100" as="geometry"/>
                </mxCell>
                <mxCell id="14" value="Extends" style="endArrow=block;endSize=12;html=1;endFill=0;entryX=0.5;entryY=1;entryDx=0;entryDy=0;exitX=0.5;exitY=0;exitDx=0;exitDy=0;" parent="1" source="4" target="7" edge="1">
                    <mxGeometry width="160" relative="1" as="geometry">
                        <mxPoint x="260" y="580" as="sourcePoint"/>
                        <mxPoint x="420" y="580" as="targetPoint"/>
                    </mxGeometry>
                </mxCell>
                <mxCell id="20" value="&lt;span style=&quot;font-size: 12px&quot;&gt;«does»&lt;/span&gt;" style="endArrow=open;endSize=12;html=1;endFill=0;exitX=1;exitY=0.25;exitDx=0;exitDy=0;dashed=1;entryX=0.5;entryY=1;entryDx=0;entryDy=0;rounded=0;" parent="1" source="4" target="15" edge="1">
                    <mxGeometry x="0.4479" width="160" relative="1" as="geometry">
                        <mxPoint x="380" y="505" as="sourcePoint"/>
                        <mxPoint x="440" y="510.21739130434776" as="targetPoint"/>
                        <Array as="points">
                            <mxPoint x="635" y="443"/>
                        </Array>
                        <mxPoint as="offset"/>
                    </mxGeometry>
                </mxCell>
                <mxCell id="24" value="Extends" style="endArrow=block;endSize=12;html=1;endFill=0;entryX=0.5;entryY=1;entryDx=0;entryDy=0;rounded=0;" parent="1" source="5" target="8" edge="1">
                    <mxGeometry width="160" relative="1" as="geometry">
                        <mxPoint x="540" y="570" as="sourcePoint"/>
                        <mxPoint x="650" y="360" as="targetPoint"/>
                        <Array as="points"/>
                    </mxGeometry>
                </mxCell>
                <mxCell id="28" value="&lt;span style=&quot;font-size: 12px&quot;&gt;«creates»&lt;/span&gt;" style="endArrow=open;endSize=12;html=1;endFill=0;dashed=1;entryX=0.5;entryY=1;entryDx=0;entryDy=0;exitX=0.5;exitY=0;exitDx=0;exitDy=0;" parent="1" source="16" target="17" edge="1">
                    <mxGeometry width="160" relative="1" as="geometry">
                        <mxPoint x="380" y="505" as="sourcePoint"/>
                        <mxPoint x="540" y="505" as="targetPoint"/>
                    </mxGeometry>
                </mxCell>
                <mxCell id="31" value="&lt;span style=&quot;font-size: 12px&quot;&gt;«refers»&lt;/span&gt;" style="endArrow=open;endSize=12;html=1;endFill=0;dashed=1;entryX=0.25;entryY=1;entryDx=0;entryDy=0;exitX=1;exitY=0.5;exitDx=0;exitDy=0;rounded=0;" parent="1" source="5" target="29" edge="1">
                    <mxGeometry width="160" relative="1" as="geometry">
                        <mxPoint x="602.5" y="510" as="sourcePoint"/>
                        <mxPoint x="775" y="350" as="targetPoint"/>
                        <Array as="points">
                            <mxPoint x="848" y="455"/>
                        </Array>
                    </mxGeometry>
                </mxCell>
                <mxCell id="39" value="Wrench" style="html=1;" parent="1" vertex="1">
                    <mxGeometry x="910" y="430" width="110" height="50" as="geometry"/>
                </mxCell>
                <mxCell id="42" value="Extends" style="endArrow=block;endSize=12;html=1;endFill=0;entryX=1;entryY=0.5;entryDx=0;entryDy=0;exitX=0.5;exitY=0;exitDx=0;exitDy=0;rounded=0;" parent="1" source="39" target="10" edge="1">
                    <mxGeometry width="160" relative="1" as="geometry">
                        <mxPoint x="710" y="387.5" as="sourcePoint"/>
                        <mxPoint x="995" y="350" as="targetPoint"/>
                        <Array as="points">
                            <mxPoint x="965" y="260"/>
                        </Array>
                    </mxGeometry>
                </mxCell>
                <mxCell id="4" value="Toad" style="html=1;" parent="1" vertex="1">
                    <mxGeometry x="460" y="430" width="110" height="50" as="geometry"/>
                </mxCell>
                <mxCell id="5" value="ConverseAction" style="html=1;" parent="1" vertex="1">
                    <mxGeometry x="700" y="430" width="110" height="50" as="geometry"/>
                </mxCell>
                <mxCell id="16" value="Application" style="html=1;" parent="1" vertex="1">
                    <mxGeometry x="270" y="430" width="110" height="50" as="geometry"/>
                </mxCell>
                <mxCell id="19" value="&lt;span style=&quot;font-size: 12px&quot;&gt;«adds»&lt;/span&gt;" style="endArrow=open;endSize=12;html=1;endFill=0;exitX=1;exitY=0.5;exitDx=0;exitDy=0;dashed=1;" parent="1" source="16" target="4" edge="1">
                    <mxGeometry width="160" relative="1" as="geometry">
                        <mxPoint x="1075" y="480" as="sourcePoint"/>
                        <mxPoint x="985" y="330" as="targetPoint"/>
                    </mxGeometry>
                </mxCell>
                <mxCell id="34" value="&lt;span style=&quot;font-size: 12px&quot;&gt;«appends»&lt;/span&gt;" style="endArrow=open;endSize=12;html=1;endFill=0;exitX=1;exitY=0.75;exitDx=0;exitDy=0;dashed=1;entryX=0;entryY=0.75;entryDx=0;entryDy=0;" parent="1" source="4" target="5" edge="1">
                    <mxGeometry width="160" relative="1" as="geometry">
                        <mxPoint x="602.5" y="510" as="sourcePoint"/>
                        <mxPoint x="765" y="330" as="targetPoint"/>
                    </mxGeometry>
                </mxCell>
                <mxCell id="45" value="&lt;span style=&quot;font-size: 12px&quot;&gt;«refers»&lt;/span&gt;" style="endArrow=open;endSize=12;html=1;endFill=0;dashed=1;entryX=0.5;entryY=1;entryDx=0;entryDy=0;exitX=0;exitY=0.5;exitDx=0;exitDy=0;rounded=0;" parent="1" source="39" target="29" edge="1">
                    <mxGeometry x="0.3793" width="160" relative="1" as="geometry">
                        <mxPoint x="830" y="465" as="sourcePoint"/>
                        <mxPoint x="857.5" y="355" as="targetPoint"/>
                        <Array as="points">
                            <mxPoint x="875" y="455"/>
                        </Array>
                        <mxPoint as="offset"/>
                    </mxGeometry>
                </mxCell>
                <mxCell id="3" value="edu.monash.fit2099.engine" style="shape=umlFrame;whiteSpace=wrap;html=1;width=185;height=30;" parent="1" vertex="1">
                    <mxGeometry x="180" y="160" width="820" height="210" as="geometry"/>
                </mxCell>
                <mxCell id="7" value="&lt;span&gt;«abstract»&lt;/span&gt;&lt;br&gt;Actor" style="html=1;" parent="1" vertex="1">
                    <mxGeometry x="460" y="295" width="110" height="50" as="geometry"/>
                </mxCell>
                <mxCell id="8" value="«abstract»&lt;br&gt;Action" style="html=1;" parent="1" vertex="1">
                    <mxGeometry x="700" y="295" width="110" height="50" as="geometry"/>
                </mxCell>
                <mxCell id="10" value="«abstract»&lt;br&gt;Item" style="html=1;" parent="1" vertex="1">
                    <mxGeometry x="700" y="235" width="110" height="50" as="geometry"/>
                </mxCell>
                <mxCell id="11" value="CapabilitySet" style="html=1;" parent="1" vertex="1">
                    <mxGeometry x="460" y="185" width="110" height="50" as="geometry"/>
                </mxCell>
                <mxCell id="15" value="DoNothingAction" style="html=1;" parent="1" vertex="1">
                    <mxGeometry x="580" y="295" width="110" height="50" as="geometry"/>
                </mxCell>
                <mxCell id="17" value="GameMap" style="html=1;" parent="1" vertex="1">
                    <mxGeometry x="270" y="295" width="110" height="50" as="geometry"/>
                </mxCell>
                <mxCell id="21" value="&lt;span&gt;«interface»&lt;/span&gt;&lt;br&gt;Capable" style="html=1;" parent="1" vertex="1">
                    <mxGeometry x="580" y="235" width="110" height="50" as="geometry"/>
                </mxCell>
                <mxCell id="22" value="&lt;span style=&quot;font-size: 12px&quot;&gt;«implements»&lt;/span&gt;" style="endArrow=block;endSize=12;html=1;endFill=0;dashed=1;entryX=0;entryY=0.5;entryDx=0;entryDy=0;rounded=0;exitX=0.5;exitY=1;exitDx=0;exitDy=0;" parent="1" source="11" target="21" edge="1">
                    <mxGeometry x="-0.1111" y="10" width="160" relative="1" as="geometry">
                        <mxPoint x="570" y="210" as="sourcePoint"/>
                        <mxPoint x="865" y="335" as="targetPoint"/>
                        <Array as="points">
                            <mxPoint x="515" y="260"/>
                        </Array>
                        <mxPoint as="offset"/>
                    </mxGeometry>
                </mxCell>
                <mxCell id="26" value="&lt;span style=&quot;font-size: 12px&quot;&gt;Holds&lt;br&gt;&lt;/span&gt;" style="endArrow=open;endSize=12;html=1;endFill=0;entryX=0.25;entryY=1;entryDx=0;entryDy=0;exitX=0.25;exitY=0;exitDx=0;exitDy=0;" parent="1" source="7" target="11" edge="1">
                    <mxGeometry x="-0.1667" width="160" relative="1" as="geometry">
                        <mxPoint x="325" y="465" as="sourcePoint"/>
                        <mxPoint x="325" y="325" as="targetPoint"/>
                        <mxPoint as="offset"/>
                    </mxGeometry>
                </mxCell>
                <mxCell id="29" value="«enum»&lt;br&gt;Status" style="html=1;" parent="1" vertex="1">
                    <mxGeometry x="820" y="295" width="110" height="50" as="geometry"/>
                </mxCell>
                <mxCell id="32" value="ActionList" style="html=1;" parent="1" vertex="1">
                    <mxGeometry x="330" y="215" width="110" height="50" as="geometry"/>
                </mxCell>
                <mxCell id="33" value="&lt;span style=&quot;font-size: 12px&quot;&gt;«builds»&lt;/span&gt;" style="endArrow=open;endSize=12;html=1;endFill=0;exitX=0;exitY=0.5;exitDx=0;exitDy=0;dashed=1;entryX=0.75;entryY=1;entryDx=0;entryDy=0;rounded=0;" parent="1" source="7" target="32" edge="1">
                    <mxGeometry width="160" relative="1" as="geometry">
                        <mxPoint x="547.5" y="495" as="sourcePoint"/>
                        <mxPoint x="325" y="235" as="targetPoint"/>
                        <Array as="points">
                            <mxPoint x="413" y="320"/>
                        </Array>
                    </mxGeometry>
                </mxCell>
                <mxCell id="46" value="&lt;span style=&quot;font-size: 12px&quot;&gt;Holds&lt;br&gt;&lt;/span&gt;" style="endArrow=open;endSize=12;html=1;endFill=0;entryX=1;entryY=0.5;entryDx=0;entryDy=0;exitX=0.5;exitY=0;exitDx=0;exitDy=0;rounded=0;" parent="1" source="10" target="11" edge="1">
                    <mxGeometry x="-0.1429" width="160" relative="1" as="geometry">
                        <mxPoint x="497.5" y="305" as="sourcePoint"/>
                        <mxPoint x="497.5" y="245" as="targetPoint"/>
                        <mxPoint as="offset"/>
                        <Array as="points">
                            <mxPoint x="755" y="210"/>
                        </Array>
                    </mxGeometry>
                </mxCell>
            </root>
        </mxGraphModel>
    </diagram>
</mxfile>